
<svg width="1920" height="1080" viewBox="0 0 1920 1080" xmlns="http://www.w3.org/2000/svg">
  <defs>
    <linearGradient id="skyGradient" x1="0%" y1="0%" x2="0%" y2="100%">
      <stop offset="0%" style="stop-color:#87CEEB;stop-opacity:1" />
      <stop offset="50%" style="stop-color:#98D8F4;stop-opacity:1" />
      <stop offset="100%" style="stop-color:#B8E6F5;stop-opacity:1" />
    </linearGradient>
    <linearGradient id="mountainGradient" x1="0%" y1="0%" x2="0%" y2="100%">
      <stop offset="0%" style="stop-color:#4A90E2;stop-opacity:1" />
      <stop offset="100%" style="stop-color:#5BA3F5;stop-opacity:1" />
    </linearGradient>
    <linearGradient id="sunGradient" x1="0%" y1="0%" x2="100%" y2="100%">
      <stop offset="0%" style="stop-color:#FFD700;stop-opacity:1" />
      <stop offset="100%" style="stop-color:#FFA500;stop-opacity:1" />
    </linearGradient>
    <filter id="glow">
      <feGaussianBlur stdDeviation="3" result="coloredBlur"/>
      <feMerge> 
        <feMergeNode in="coloredBlur"/>
        <feMergeNode in="SourceGraphic"/>
      </feMerge>
    </filter>
  </defs>
  
  <!-- Sky background -->
  <rect width="1920" height="1080" fill="url(#skyGradient)"/>
  
  <!-- Sun -->
  <circle cx="1600" cy="200" r="80" fill="url(#sunGradient)" filter="url(#glow)"/>
  
  <!-- Mountains in background -->
  <polygon points="0,600 300,300 600,400 900,250 1200,350 1500,200 1800,300 1920,400 1920,1080 0,1080" fill="url(#mountainGradient)" opacity="0.7"/>
  
  <!-- Rolling hills -->
  <ellipse cx="400" cy="700" rx="400" ry="100" fill="#90EE90" opacity="0.8"/>
  <ellipse cx="900" cy="720" rx="350" ry="80" fill="#98FB98" opacity="0.9"/>
  <ellipse cx="1400" cy="740" rx="400" ry="90" fill="#90EE90" opacity="0.8"/>
  
  <!-- Trees -->
  <ellipse cx="200" cy="650" rx="30" ry="60" fill="#228B22"/>
  <rect x="195" y="680" width="10" height="40" fill="#8B4513"/>
  
  <ellipse cx="350" cy="680" rx="25" ry="50" fill="#32CD32"/>
  <rect x="347" y="700" width="8" height="35" fill="#8B4513"/>
  
  <ellipse cx="800" cy="690" rx="35" ry="65" fill="#228B22"/>
  <rect x="793" y="720" width="12" height="45" fill="#8B4513"/>
  
  <ellipse cx="1200" cy="700" rx="28" ry="55" fill="#32CD32"/>
  <rect x="1196" y="725" width="9" height="38" fill="#8B4513"/>
  
  <ellipse cx="1500" cy="710" rx="32" ry="60" fill="#228B22"/>
  <rect x="1494" y="740" width="11" height="42" fill="#8B4513"/>
  
  <!-- Flowers scattered around -->
  <circle cx="150" cy="750" r="8" fill="#FF69B4"/>
  <circle cx="145" cy="745" r="6" fill="#FFB6C1"/>
  <circle cx="155" cy="745" r="6" fill="#FFB6C1"/>
  
  <circle cx="450" cy="780" r="7" fill="#FF1493"/>
  <circle cx="446" cy="776" r="5" fill="#FFC0CB"/>
  <circle cx="454" cy="776" r="5" fill="#FFC0CB"/>
  
  <circle cx="750" cy="790" r="9" fill="#FF69B4"/>
  <circle cx="744" cy="784" r="6" fill="#FFB6C1"/>
  <circle cx="756" cy="784" r="6" fill="#FFB6C1"/>
  
  <circle cx="1100" cy="800" r="8" fill="#FF1493"/>
  <circle cx="1095" cy="795" r="6" fill="#FFC0CB"/>
  <circle cx="1105" cy="795" r="6" fill="#FFC0CB"/>
  
  <circle cx="1400" cy="810" r="7" fill="#FF69B4"/>
  <circle cx="1396" cy="806" r="5" fill="#FFB6C1"/>
  <circle cx="1404" cy="806" r="5" fill="#FFB6C1"/>
  
  <!-- Clouds -->
  <ellipse cx="300" cy="150" rx="60" ry="25" fill="white" opacity="0.8"/>
  <ellipse cx="320" cy="140" rx="40" ry="20" fill="white" opacity="0.8"/>
  <ellipse cx="280" cy="140" rx="35" ry="18" fill="white" opacity="0.8"/>
  
  <ellipse cx="800" cy="100" rx="70" ry="30" fill="white" opacity="0.9"/>
  <ellipse cx="825" cy="90" rx="45" ry="22" fill="white" opacity="0.9"/>
  <ellipse cx="775" cy="90" rx="40" ry="20" fill="white" opacity="0.9"/>
  
  <ellipse cx="1300" cy="120" rx="55" ry="28" fill="white" opacity="0.8"/>
  <ellipse cx="1315" cy="110" rx="35" ry="18" fill="white" opacity="0.8"/>
  <ellipse cx="1285" cy="110" rx="30" ry="16" fill="white" opacity="0.8"/>
  
  <!-- Butterflies -->
  <g transform="translate(600,400) scale(0.8)">
    <ellipse cx="0" cy="0" rx="12" ry="8" fill="#FFD700" opacity="0.9"/>
    <ellipse cx="8" cy="-2" rx="8" ry="6" fill="#FFA500" opacity="0.9"/>
    <ellipse cx="0" cy="10" rx="10" ry="6" fill="#FFD700" opacity="0.9"/>
    <ellipse cx="8" cy="8" rx="6" ry="4" fill="#FFA500" opacity="0.9"/>
    <line x1="4" y1="4" x2="4" y2="15" stroke="#8B4513" stroke-width="1"/>
  </g>
  
  <g transform="translate(1000,300) scale(0.6)">
    <ellipse cx="0" cy="0" rx="12" ry="8" fill="#FF69B4" opacity="0.9"/>
    <ellipse cx="8" cy="-2" rx="8" ry="6" fill="#FF1493" opacity="0.9"/>
    <ellipse cx="0" cy="10" rx="10" ry="6" fill="#FF69B4" opacity="0.9"/>
    <ellipse cx="8" cy="8" rx="6" ry="4" fill="#FF1493" opacity="0.9"/>
    <line x1="4" y1="4" x2="4" y2="15" stroke="#8B4513" stroke-width="1"/>
  </g>
  
  <!-- Rainbow arc -->
  <path d="M 500 600 Q 960 300 1420 600" stroke="#FF0000" stroke-width="8" fill="none" opacity="0.6"/>
  <path d="M 510 605 Q 960 310 1410 605" stroke="#FF7F00" stroke-width="8" fill="none" opacity="0.6"/>
  <path d="M 520 610 Q 960 320 1400 610" stroke="#FFFF00" stroke-width="8" fill="none" opacity="0.6"/>
  <path d="M 530 615 Q 960 330 1390 615" stroke="#00FF00" stroke-width="8" fill="none" opacity="0.6"/>
  <path d="M 540 620 Q 960 340 1380 620" stroke="#0000FF" stroke-width="8" fill="none" opacity="0.6"/>
  <path d="M 550 625 Q 960 350 1370 625" stroke="#4B0082" stroke-width="8" fill="none" opacity="0.6"/>
  <path d="M 560 630 Q 960 360 1360 630" stroke="#9400D3" stroke-width="8" fill="none" opacity="0.6"/>
  
  <!-- Birds -->
  <path d="M 1200 250 Q 1205 245 1210 250 Q 1215 245 1220 250" stroke="#333" stroke-width="2" fill="none"/>
  <path d="M 1300 200 Q 1305 195 1310 200 Q 1315 195 1320 200" stroke="#333" stroke-width="2" fill="none"/>
  <path d="M 1400 180 Q 1405 175 1410 180 Q 1415 175 1420 180" stroke="#333" stroke-width="2" fill="none"/>
  
  <!-- Sparkles for magic/hope -->
  <g fill="#FFD700" opacity="0.8">
    <polygon points="400,200 405,210 415,210 407,218 410,228 400,222 390,228 393,218 385,210 395,210" transform="scale(0.5)"/>
    <polygon points="1100,150 1105,160 1115,160 1107,168 1110,178 1100,172 1090,178 1093,168 1085,160 1095,160" transform="scale(0.4)"/>
    <polygon points="1600,350 1605,360 1615,360 1607,368 1610,378 1600,372 1590,378 1593,368 1585,360 1595,360" transform="scale(0.6)"/>
  </g>
</svg>
